<?xml version="1.0" encoding="utf-8"?>
<svg xmlns="http://www.w3.org/2000/svg" xmlns:svg="http://www.w3.org/2000/svg" version="1.1" viewBox="0 0 1400 440">
	<title>The titlepage for the Standard Ebooks edition of Alice’s Adventures in Wonderland, by Lewis Carroll. Illustrated by John Tenniel</title>
	<g>
		<path d="m 183.8611,52.807016 -16.2807,0 L 136.42251,130 l 18.90058,0 5.7076,-15.4386 29.38012,0 5.7076,15.4386 18.90059,0 -31.1579,-77.192984 z m 0.56141,46.31579 -17.40351,0 8.60818,-22.45614 0.18714,0 8.60819,22.45614 z"/>
		<path d="m 240.52923,52.807016 -17.59064,0 0,77.192984 44.16374,0 0,-15.4386 -26.5731,0 0,-61.754384 z"/>
		<path d="m 298.34356,52.807016 -17.59064,0 0,77.192984 17.59064,0 0,-77.192984 z"/>
		<path d="m 352.77923,114.09357 c -17.68421,0 -25.45029,-12.35088 -25.45029,-22.736846 0,-10.292397 7.76608,-22.643275 25.45029,-22.643275 8.98246,0 15.1579,4.77193 15.1579,4.77193 l 7.48538,-14.97076 c 0,0 -8.60819,-7.111112 -25.35673,-7.111112 -21.89474,0 -41.82456,17.964913 -41.82456,40.140352 0,22.081871 20.02339,39.859651 41.82456,39.859651 16.74854,0 25.35673,-7.11111 25.35673,-7.11111 l -7.48538,-14.97076 c 0,0 -6.17544,4.77193 -15.1579,4.77193 z"/>
		<path d="m 431.22514,52.807016 -44.16375,0 0,77.192984 44.16375,0 0,-15.4386 -26.5731,0 0,-15.532161 25.45029,0 0,-15.438597 -25.45029,0 0,-15.345029 26.5731,0 0,-15.438597 z"/>
		<path d="m 455.97513,51.403507 c -5.33334,0 -9.63743,4.397661 -9.63743,9.824562 0,4.397661 3.18128,7.766082 7.29824,8.795322 -1.30994,7.111111 -6.45614,11.976608 -6.45614,11.976608 l 4.39766,3.461989 c 6.83041,-5.707603 14.22223,-14.035088 14.22223,-24.233919 0,-5.426901 -4.39766,-9.824562 -9.82456,-9.824562 z"/>
		<path d="m 507.19444,51.403507 c -12.44445,0 -25.1696,9.169591 -25.1696,23.578948 0,8.046784 5.42691,15.251462 14.69006,19.836258 9.16959,4.584795 17.40351,7.111107 17.40351,12.725147 0,7.20468 -7.29824,7.57895 -11.1345,7.57895 -8.60819,0 -18.90059,-8.70176 -18.90059,-8.70176 l -8.79532,14.78363 c 0,0 10.94737,10.19883 29.00585,10.19883 15.06433,0 29.09942,-6.45614 29.09942,-24.88889 0,-10.105264 -9.4503,-17.40351 -18.05848,-21.052632 -8.79533,-3.742691 -16.09357,-6.83041 -16.09357,-11.134504 0,-4.210526 3.18129,-6.923976 9.16959,-6.923976 7.95322,0 15.62573,5.333333 15.62573,5.333333 l 7.11111,-14.035088 c 0,0 -9.91813,-7.298246 -23.95321,-7.298246 z"/>
		<path d="m 616.40496,52.807016 -16.28071,0 L 568.96636,130 l 18.90058,0 5.70761,-15.4386 29.38011,0 5.70761,15.4386 18.90058,0 -31.15789,-77.192984 z m 0.5614,46.31579 -17.40351,0 8.60819,-22.45614 0.18713,0 8.60819,22.45614 z"/>
		<path d="m 655.48244,52.807016 0,77.192984 22.36258,0 c 21.23976,0 38.92397,-16.09357 38.92397,-38.643276 0,-22.45614 -17.77777,-38.549708 -38.92397,-38.549708 l -22.36258,0 z m 17.59065,61.473684 0,-45.754385 2.71345,0 c 13.09941,0 21.9883,10.011696 21.9883,22.923977 -0.0936,12.912278 -8.98245,22.830408 -21.9883,22.830408 l -2.71345,0 z"/>
		<path d="m 745.66079,130 13.84795,0 32.37427,-77.192984 -19.83626,0 -19.46198,50.713454 -19.46199,-50.713454 -19.83626,0 L 745.66079,130 Z"/>
		<path d="m 843.96635,52.807016 -44.16375,0 0,77.192984 44.16375,0 0,-15.4386 -26.5731,0 0,-15.532161 25.45029,0 0,-15.438597 -25.45029,0 0,-15.345029 26.5731,0 0,-15.438597 z"/>
		<path d="m 876.66961,82.093566 0.18714,0 L 907.54681,130 l 17.59064,0 0,-77.192984 -17.59064,0 0,47.906434 -0.18714,0 -30.69006,-47.906434 -17.59064,0 0,77.192984 17.59064,0 0,-47.906434 z"/>
		<path d="m 931.94736,68.245613 18.33918,0 0,61.754387 17.59064,0 0,-61.754387 18.33919,0 0,-15.438597 -54.26901,0 0,15.438597 z"/>
		<path d="m 1056.8728,52.807016 -17.5906,0 0,44.63158 c 0,12.912284 -3.9298,16.654974 -12.538,16.654974 -8.6082,0 -12.538,-3.74269 -12.538,-16.654974 l 0,-44.63158 -17.59067,0 0,49.777774 c 0,19.08772 10.47957,28.81872 30.12867,28.81872 19.6491,0 30.1286,-9.731 30.1286,-28.81872 l 0,-49.777774 z"/>
		<path d="m 1072.3611,52.807016 0,77.192984 17.5907,0 0,-30.502925 23.5789,30.502925 22.3626,0 -26.5731,-31.906433 c 9.4503,-2.994152 15.8129,-10.760234 15.8129,-22.362574 0,-15.157895 -10.8538,-22.923977 -25.1696,-22.923977 l -27.6024,0 z m 17.5907,34.245615 0,-20.210527 2.0585,0 c 6.6432,0 14.5965,0.467836 14.5965,10.105263 0,9.637428 -7.9533,10.105264 -14.5965,10.105264 l -2.0585,0 z"/>
		<path d="m 1188.5936,52.807016 -44.1637,0 0,77.192984 44.1637,0 0,-15.4386 -26.5731,0 0,-15.532161 25.4503,0 0,-15.438597 -25.4503,0 0,-15.345029 26.5731,0 0,-15.438597 z"/>
		<path d="m 1232.1506,51.403507 c -12.4445,0 -25.1696,9.169591 -25.1696,23.578948 0,8.046784 5.4269,15.251462 14.69,19.836258 9.1696,4.584795 17.4035,7.111107 17.4035,12.725147 0,7.20468 -7.2982,7.57895 -11.1345,7.57895 -8.6082,0 -18.9006,-8.70176 -18.9006,-8.70176 l -8.7953,14.78363 c 0,0 10.9474,10.19883 29.0059,10.19883 15.0643,0 29.0994,-6.45614 29.0994,-24.88889 0,-10.105264 -9.4503,-17.40351 -18.0585,-21.052632 -8.7953,-3.742691 -16.0936,-6.83041 -16.0936,-11.134504 0,-4.210526 3.1813,-6.923976 9.1696,-6.923976 7.9532,0 15.6258,5.333333 15.6258,5.333333 l 7.1111,-14.035088 c 0,0 -9.9182,-7.298246 -23.9532,-7.298246 z"/>
	</g>
	<g>
		<path d="m 268.49707,152.80702 -17.59064,0 0,77.19298 17.59064,0 0,-77.19298 z"/>
		<path d="m 302.37134,182.09357 0.18713,0 30.69006,47.90643 17.59064,0 0,-77.19298 -17.59064,0 0,47.90643 -0.18713,0 -30.69006,-47.90643 -17.59065,0 0,77.19298 17.59065,0 0,-47.90643 z"/>
		<path d="m 448.85526,230 19.46199,0 21.9883,-77.19298 -19.46198,0 -13.19299,52.95906 -0.46783,0 -14.03509,-52.95906 -13.28655,0 -14.03509,52.95906 -0.46784,0 -13.19298,-52.95906 -19.55555,0 21.9883,77.19298 19.55556,0 12.35087,-43.32164 L 448.85526,230 Z"/>
		<path d="m 493.13889,191.35672 c 0,22.54971 16.09357,40.04679 38.92398,40.04679 22.17544,0 38.83041,-17.49708 38.83041,-40.04679 0,-22.5497 -17.40351,-39.95321 -38.83041,-39.95321 -21.23976,0 -38.92398,17.40351 -38.92398,39.95321 z m 18.99416,0 c 0,-11.50877 6.36257,-23.01754 19.92982,-23.01754 13.66082,0 19.83626,11.50877 19.83626,23.01754 0,11.50878 -5.80117,23.01755 -19.83626,23.01755 -14.40935,0 -19.92982,-11.50877 -19.92982,-23.01755 z"/>
		<path d="m 601.2456,182.09357 0.18714,0 L 632.1228,230 l 17.59064,0 0,-77.19298 -17.59064,0 0,47.90643 -0.18714,0 -30.69006,-47.90643 -17.59064,0 0,77.19298 17.59064,0 0,-47.90643 z"/>
		<path d="m 665.9576,152.80702 0,77.19298 22.36258,0 c 21.23976,0 38.92397,-16.09357 38.92397,-38.64328 0,-22.45614 -17.77777,-38.5497 -38.92397,-38.5497 l -22.36258,0 z m 17.59065,61.47368 0,-45.75439 2.71345,0 c 13.09941,0 21.9883,10.0117 21.9883,22.92398 -0.0936,12.91228 -8.98245,22.83041 -21.9883,22.83041 l -2.71345,0 z"/>
		<path d="m 784.2003,152.80702 -44.16375,0 0,77.19298 44.16375,0 0,-15.4386 -26.5731,0 0,-15.53216 25.45029,0 0,-15.4386 -25.45029,0 0,-15.34503 26.5731,0 0,-15.43859 z"/>
		<path d="m 799.31286,152.80702 0,77.19298 17.59064,0 0,-30.50292 23.57895,30.50292 22.36257,0 -26.5731,-31.90643 c 9.4503,-2.99416 15.81287,-10.76024 15.81287,-22.36258 0,-15.15789 -10.8538,-22.92397 -25.16959,-22.92397 l -27.60234,0 z m 17.59064,34.24561 0,-20.21053 2.05848,0 c 6.64328,0 14.59649,0.46784 14.59649,10.10527 0,9.63742 -7.95321,10.10526 -14.59649,10.10526 l -2.05848,0 z"/>
		<path d="m 888.97223,152.80702 -17.59065,0 0,77.19298 44.16375,0 0,-15.4386 -26.5731,0 0,-61.75438 z"/>
		<path d="m 969.86257,152.80702 -16.2807,0 -31.1579,77.19298 18.90059,0 5.7076,-15.4386 29.38012,0 5.7076,15.4386 18.90062,0 -31.15793,-77.19298 z m 0.5614,46.31579 -17.40351,0 8.60819,-22.45614 0.18714,0 8.60818,22.45614 z"/>
		<path d="m 1026.5307,182.09357 0.1871,0 30.6901,47.90643 17.5906,0 0,-77.19298 -17.5906,0 0,47.90643 -0.1871,0 -30.6901,-47.90643 -17.5906,0 0,77.19298 17.5906,0 0,-47.90643 z"/>
		<path d="m 1091.2427,152.80702 0,77.19298 22.3626,0 c 21.2398,0 38.924,-16.09357 38.924,-38.64328 0,-22.45614 -17.7778,-38.5497 -38.924,-38.5497 l -22.3626,0 z m 17.5907,61.47368 0,-45.75439 2.7134,0 c 13.0994,0 21.9883,10.0117 21.9883,22.92398 -0.093,12.91228 -8.9824,22.83041 -21.9883,22.83041 l -2.7134,0 z"/>
	</g>
	<g>
		<path d="m 365.6875,332.10526 -13.19298,0 0,57.89474 33.12281,0 0,-11.57895 -19.92983,0 0,-46.31579 z"/>
		<path d="m 430.22807,332.10526 -33.1228,0 0,57.89474 33.1228,0 0,-11.57895 -19.92982,0 0,-11.64912 19.08772,0 0,-11.57895 -19.08772,0 0,-11.50877 19.92982,0 0,-11.57895 z"/>
		<path d="m 487.23355,390 14.59649,0 16.49123,-57.89474 -14.59649,0 -9.89474,39.7193 -0.35088,0 -10.52631,-39.7193 -9.96491,0 -10.52632,39.7193 -0.35088,0 -9.89473,-39.7193 -14.66667,0 16.49123,57.89474 14.66667,0 9.26315,-32.49123 L 487.23355,390 Z"/>
		<path d="m 539.67873,332.10526 -13.19298,0 0,57.89474 13.19298,0 0,-57.89474 z"/>
		<path d="m 573.10418,331.05263 c -9.33334,0 -18.8772,6.8772 -18.8772,17.68421 0,6.03509 4.07018,11.4386 11.01755,14.8772 6.87719,3.43859 13.05263,5.33333 13.05263,9.54385 0,5.40351 -5.47369,5.68422 -8.35088,5.68422 -6.45614,0 -14.17544,-6.52632 -14.17544,-6.52632 l -6.59649,11.08772 c 0,0 8.21053,7.64912 21.75439,7.64912 11.29824,0 21.82456,-4.8421 21.82456,-18.66666 0,-7.57895 -7.08772,-13.05264 -13.54386,-15.78948 -6.59649,-2.80702 -12.07018,-5.12281 -12.07018,-8.35088 0,-3.15789 2.38597,-5.19298 6.8772,-5.19298 5.96491,0 11.71929,4 11.71929,4 l 5.33334,-10.52631 c 0,0 -7.4386,-5.47369 -17.96491,-5.47369 z"/>
		<path d="M 645.60418,390 630.23576,371.19298 643.42874,354 l -14.52632,0 -6.24561,8.35088 L 616.41119,354 601.88488,354 615.07786,371.19298 599.70944,390 l 15.01754,0 7.92983,-10.17544 7.92982,10.17544 15.01755,0 z"/>
		<path d="m 707.63815,378.07018 c -13.26316,0 -19.08772,-9.26316 -19.08772,-17.05264 0,-7.71929 5.82456,-16.98245 19.08772,-16.98245 6.73684,0 11.36842,3.57895 11.36842,3.57895 l 5.61403,-11.22807 c 0,0 -6.45614,-5.33334 -19.01754,-5.33334 -16.42105,0 -31.36842,13.47369 -31.36842,30.10527 0,16.5614 15.01754,29.89473 31.36842,29.89473 12.5614,0 19.01754,-5.33333 19.01754,-5.33333 l -5.61403,-11.22807 c 0,0 -4.63158,3.57895 -11.36842,3.57895 z"/>
		<path d="m 764.00328,332.10526 -12.21052,0 L 728.42434,390 l 14.17544,0 4.2807,-11.57895 22.03508,0 4.28071,11.57895 14.17543,0 -23.36842,-57.89474 z m 0.42106,34.73685 -13.05263,0 6.45614,-16.84211 0.14035,0 6.45614,16.84211 z"/>
		<path d="m 794.56142,332.10526 0,57.89474 13.19298,0 0,-22.87719 17.68421,22.87719 16.77193,0 -19.92983,-23.92982 c 7.08772,-2.24562 11.85965,-8.07018 11.85965,-16.77193 0,-11.36842 -8.14035,-17.19299 -18.87719,-17.19299 l -20.70175,0 z m 13.19298,25.68421 0,-15.15789 1.54386,0 c 4.98245,0 10.94737,0.35088 10.94737,7.57895 0,7.22807 -5.96492,7.57894 -10.94737,7.57894 l -1.54386,0 z"/>
		<path d="m 849.86293,332.10526 0,57.89474 13.19298,0 0,-22.87719 17.68421,22.87719 16.77193,0 -19.92982,-23.92982 c 7.08772,-2.24562 11.85965,-8.07018 11.85965,-16.77193 0,-11.36842 -8.14036,-17.19299 -18.8772,-17.19299 l -20.70175,0 z m 13.19298,25.68421 0,-15.15789 1.54386,0 c 4.98246,0 10.94737,0.35088 10.94737,7.57895 0,7.22807 -5.96491,7.57894 -10.94737,7.57894 l -1.54386,0 z"/>
		<path d="m 902.56795,361.01754 c 0,16.91228 12.07018,30.03509 29.19298,30.03509 16.63158,0 29.12281,-13.12281 29.12281,-30.03509 0,-16.91228 -13.05263,-29.96491 -29.12281,-29.96491 -15.92982,0 -29.19298,13.05263 -29.19298,29.96491 z m 14.24562,0 c 0,-8.63157 4.77192,-17.26315 14.94736,-17.26315 10.24562,0 14.8772,8.63158 14.8772,17.26315 0,8.63158 -4.35088,17.26316 -14.8772,17.26316 -10.80701,0 -14.94736,-8.63158 -14.94736,-17.26316 z"/>
		<path d="m 984.89801,332.10526 -13.19298,0 0,57.89474 33.12277,0 0,-11.57895 -19.92979,0 0,-46.31579 z"/>
		<path d="m 1029.5088,332.10526 -13.193,0 0,57.89474 33.1228,0 0,-11.57895 -19.9298,0 0,-46.31579 z"/>
	</g>
	<g>
		<path d="m 628.09716,460.04 c -0.696,0 -1.26,0.564 -1.26,1.26 0,0.696 0.564,1.26 1.26,1.26 0.696,0 1.26,-0.564 1.26,-1.26 0,-0.696 -0.564,-1.26 -1.26,-1.26 z m -1.092,3.804 2.124,0 0,6.156 -2.124,0 0,-6.156 z"/>
		<path d="m 635.63797,470 2.124,0 0,-10.32 -2.124,0 0,10.32 z"/>
		<path d="m 644.22391,470 2.124,0 0,-10.32 -2.124,0 0,10.32 z"/>
		<path d="m 654.81384,463.844 -2.124,0 0,3.444 c 0,2.064 1.032,2.892 3.336,2.892 2.304,0 3.336,-0.828 3.336,-2.892 l 0,-3.444 -2.124,0 0,2.928 c 0,1.212 -0.324,1.68 -1.212,1.68 -0.888,0 -1.212,-0.468 -1.212,-1.68 l 0,-2.928 z"/>
		<path d="m 668.33741,463.664 c -1.62,0 -2.688,0.72 -2.688,1.98 0,0.924 0.624,1.356 1.248,1.68 0.696,0.36 1.368,0.396 1.368,0.84 0,0.408 -0.36,0.444 -0.66,0.444 -0.684,0 -1.524,-0.708 -1.524,-0.708 l -0.864,1.452 c 0,0 0.888,0.828 2.376,0.828 1.26,0 2.916,-0.288 2.916,-2.1 0,-1.26 -1.056,-1.716 -1.872,-1.968 -0.528,-0.168 -0.96,-0.264 -0.96,-0.588 0,-0.288 0.192,-0.372 0.66,-0.372 0.648,0 1.368,0.384 1.368,0.384 l 0.696,-1.392 c 0,0 -0.876,-0.48 -2.064,-0.48 z"/>
		<path d="m 676.78703,463.844 -0.888,0 0,1.62 0.888,0 0,2.364 c 0,1.092 0.408,2.352 2.1,2.352 0.876,0 1.56,-0.384 1.56,-0.384 l -0.528,-1.716 c 0,0 -0.252,0.192 -0.528,0.192 -0.336,0 -0.48,-0.276 -0.48,-0.852 l 0,-1.956 1.296,0 0,-1.62 -1.296,0 0,-2.292 -2.124,0 0,2.292 z"/>
		<path d="m 686.16141,470 2.124,0 0,-3.24 c 0,-0.156 0.156,-1.248 1.26,-1.248 0.708,0 1.104,0.336 1.104,0.336 l 0.888,-1.8 c 0,0 -0.552,-0.384 -1.344,-0.384 -1.212,0 -1.884,1.068 -1.884,1.068 l -0.024,0 0,-0.888 -2.124,0 0,6.156 z"/>
		<path d="m 696.62366,466.928 c 0,1.8 1.26,3.252 3.06,3.252 0.84,0 1.56,-0.372 2.016,-0.876 l 0.024,0 0,0.696 2.1,0 0,-6.156 -2.124,0 0,0.588 c -0.504,-0.492 -1.188,-0.768 -2.016,-0.768 -1.8,0 -3.06,1.464 -3.06,3.264 z m 2.256,0 c 0,-0.852 0.636,-1.452 1.44,-1.452 0.792,0 1.428,0.6 1.428,1.452 0,0.84 -0.6,1.44 -1.428,1.44 -0.864,0 -1.44,-0.6 -1.44,-1.44 z"/>
		<path d="m 710.53703,463.844 -0.888,0 0,1.62 0.888,0 0,2.364 c 0,1.092 0.408,2.352 2.1,2.352 0.876,0 1.56,-0.384 1.56,-0.384 l -0.528,-1.716 c 0,0 -0.252,0.192 -0.528,0.192 -0.336,0 -0.48,-0.276 -0.48,-0.852 l 0,-1.956 1.296,0 0,-1.62 -1.296,0 0,-2.292 -2.124,0 0,2.292 z"/>
		<path d="m 726.13941,467.216 c 0.012,-0.072 0.012,-0.204 0.012,-0.288 0,-2.16 -1.428,-3.264 -3.3,-3.264 -1.86,0 -3.384,1.464 -3.384,3.264 0,1.788 1.524,3.252 3.384,3.252 1.368,0 2.496,-0.444 3.192,-1.608 l -1.536,-0.768 c -0.516,0.552 -0.816,0.684 -1.5,0.684 -0.54,0 -1.332,-0.324 -1.332,-1.272 l 4.464,0 z m -4.404,-1.176 c 0.036,-0.564 0.444,-0.996 1.176,-0.996 0.624,0 1.068,0.348 1.164,0.996 l -2.34,0 z"/>
		<path d="m 731.70959,466.928 c 0,1.8 1.26,3.252 3.06,3.252 0.84,0 1.56,-0.372 2.016,-0.876 l 0.024,0 0,0.696 2.1,0 0,-10.32 -2.124,0 0,4.752 c -0.504,-0.492 -1.188,-0.768 -2.016,-0.768 -1.8,0 -3.06,1.464 -3.06,3.264 z m 2.256,0 c 0,-0.852 0.636,-1.452 1.44,-1.452 0.792,0 1.428,0.6 1.428,1.452 0,0.84 -0.6,1.44 -1.428,1.44 -0.864,0 -1.44,-0.6 -1.44,-1.44 z"/>
		<path d="m 760.83797,466.928 c 0,-1.8 -1.26,-3.264 -3.06,-3.264 -0.828,0 -1.512,0.276 -2.016,0.768 l 0,-4.752 -2.124,0 0,10.32 2.1,0 0,-0.696 0.024,0 c 0.456,0.504 1.176,0.876 2.016,0.876 1.8,0 3.06,-1.452 3.06,-3.252 z m -2.256,0 c 0,0.84 -0.576,1.44 -1.44,1.44 -0.828,0 -1.428,-0.6 -1.428,-1.44 0,-0.852 0.636,-1.452 1.428,-1.452 0.804,0 1.44,0.6 1.44,1.452 z"/>
		<path d="m 771.50909,463.844 -1.464,3.156 -1.716,-3.156 -2.448,0 2.916,5.196 -2.124,4.08 2.448,0 4.836,-9.276 -2.448,0 z"/>
	</g>
	<g>
		<path d="m 632.87956,530.1 -2.256,0 0,6.528 c 0,0.996 -0.492,1.392 -1.14,1.392 -0.576,0 -1.284,-0.672 -1.284,-0.672 l -0.72,1.884 c 0,0 0.9,0.948 2.316,0.948 1.98,0 3.084,-1.032 3.084,-2.976 l 0,-7.104 z"/>
		<path d="m 638.75256,535.044 c 0,2.892 2.064,5.136 4.992,5.136 2.844,0 4.98,-2.244 4.98,-5.136 0,-2.892 -2.232,-5.124 -4.98,-5.124 -2.724,0 -4.992,2.232 -4.992,5.124 z m 2.436,0 c 0,-1.476 0.816,-2.952 2.556,-2.952 1.752,0 2.544,1.476 2.544,2.952 0,1.476 -0.744,2.952 -2.544,2.952 -1.848,0 -2.556,-1.476 -2.556,-2.952 z"/>
		<path d="m 656.976,536.028 3.192,0 0,3.972 2.256,0 0,-9.9 -2.256,0 0,3.948 -3.192,0 0,-3.948 -2.256,0 0,9.9 2.256,0 0,-3.972 z"/>
		<path d="m 671.14006,533.856 0.024,0 3.936,6.144 2.256,0 0,-9.9 -2.256,0 0,6.144 -0.024,0 -3.936,-6.144 -2.256,0 0,9.9 2.256,0 0,-6.144 z"/>
		<path d="m 690.86944,532.08 2.352,0 0,7.92 2.256,0 0,-7.92 2.352,0 0,-1.98 -6.96,0 0,1.98 z"/>
		<path d="m 709.30588,530.1 -5.664,0 0,9.9 5.664,0 0,-1.98 -3.40801,0 0,-1.992 3.264,0 0,-1.98 -3.264,0 0,-1.968 3.40801,0 0,-1.98 z"/>
		<path d="m 717.85881,533.856 0.024,0 3.936,6.144 2.256,0 0,-9.9 -2.256,0 0,6.144 -0.024,0 -3.936,-6.144 -2.256,0 0,9.9 2.256,0 0,-6.144 z"/>
		<path d="m 732.77287,533.856 0.024,0 3.93601,6.144 2.25599,0 0,-9.9 -2.25599,0 0,6.144 -0.024,0 -3.93601,-6.144 -2.25599,0 0,9.9 2.25599,0 0,-6.144 z"/>
		<path d="m 747.68694,530.1 -2.256,0 0,9.9 2.256,0 0,-9.9 z"/>
		<path d="m 759.79806,530.1 -5.664,0 0,9.9 5.664,0 0,-1.98 -3.408,0 0,-1.992 3.264,0 0,-1.98 -3.264,0 0,-1.968 3.408,0 0,-1.98 z"/>
		<path d="m 768.351,530.1 -2.256,0 0,9.9 5.664,0 0,-1.98 -3.408,0 0,-7.92 z"/>
	</g>
</svg>
