<?xml version="1.0" encoding="UTF-8"?>
<svg xmlns="http://www.w3.org/2000/svg" xmlns:se="https://standardebooks.org/vocab/1.0" version="1.1" viewBox="0 0 1400 440" se:generated-from="e75ab6ab9a0013766f1a4a04175cd77db19254df">
	<path d="M 186.48003,51.404756 170.19885,51.404756 139.04004,128.60001 157.94118,128.60001 163.64895,113.16096 193.02993,113.16096 198.7377,128.60001 217.63884,128.60001 186.48003,51.404756 Z M 187.04145,97.721906 169.63743,97.721906 178.24587,75.265106 178.43301,75.265106 187.04145,97.721906 Z"/>
	<path d="M 243.14968,51.404756 225.55852,51.404756 225.55852,128.60001 269.72356,128.60001 269.72356,113.16096 243.14968,113.16096 243.14968,51.404756 Z"/>
	<path d="M 300.96555,51.404756 283.37439,51.404756 283.37439,128.60001 300.96555,128.60001 300.96555,51.404756 Z"/>
	<path d="M 355.40269,112.69311 C 337.71796,112.69311 329.95165,100.34187 329.95165,89.955596 329.95165,79.662896 337.71796,67.311656 355.40269,67.311656 364.38541,67.311656 370.56103,72.083726 370.56103,72.083726 L 378.04663,57.112526 C 378.04663,57.112526 369.43819,50.001206 352.68916,50.001206 330.79378,50.001206 310.86337,67.966646 310.86337,90.142736 310.86337,112.22526 330.88735,130.00356 352.68916,130.00356 369.43819,130.00356 378.04663,122.89224 378.04663,122.89224 L 370.56103,107.92104 C 370.56103,107.92104 364.38541,112.69311 355.40269,112.69311 Z"/>
	<path d="M 434.0335,51.404756 389.86846,51.404756 389.86846,128.60001 434.0335,128.60001 434.0335,113.16096 407.45962,113.16096 407.45962,97.628336 432.91066,97.628336 432.91066,82.189286 407.45962,82.189286 407.45962,66.843806 434.0335,66.843806 434.0335,51.404756 Z"/>
	<path d="M 458.78408,50.001206 C 453.45059,50.001206 449.14637,54.398996 449.14637,59.826056 449.14637,64.223846 452.32775,67.592366 456.44483,68.621636 455.13485,75.732956 449.9885,80.598596 449.9885,80.598596 L 454.38629,84.060686 C 461.2169,78.352916 468.60893,70.025186 468.60893,59.826056 468.60893,54.398996 464.21114,50.001206 458.78408,50.001206 Z"/>
	<path d="M 509.82199,50.001206 C 497.37718,50.001206 484.65166,59.171066 484.65166,73.580846 484.65166,81.627866 490.07872,88.832756 499.34215,93.417686 508.51201,98.002616 516.74617,100.52901 516.74617,106.14321 516.74617,113.3481 509.44771,113.72238 505.61134,113.72238 497.0029,113.72238 486.7102,105.02037 486.7102,105.02037 L 477.91462,119.80443 C 477.91462,119.80443 488.86231,130.00356 506.92132,130.00356 521.98609,130.00356 536.02159,123.54723 536.02159,105.11394 536.02159,95.008376 526.57102,87.709916 517.96258,84.060686 509.167,80.317886 501.86854,77.230076 501.86854,72.925856 501.86854,68.715206 505.04992,66.001676 511.0384,66.001676 518.99185,66.001676 526.66459,71.335166 526.66459,71.335166 L 533.77591,57.299666 C 533.77591,57.299666 523.85749,50.001206 509.82199,50.001206 Z"/>
	<path d="M 619.03542,51.404756 602.75424,51.404756 571.59543,128.60001 590.49657,128.60001 596.20434,113.16096 625.58532,113.16096 631.29309,128.60001 650.19423,128.60001 619.03542,51.404756 Z M 619.59684,97.721906 602.19282,97.721906 610.80126,75.265106 610.9884,75.265106 619.59684,97.721906 Z"/>
	<path d="M 658.11393,51.404756 658.11393,128.60001 680.47716,128.60001 C 701.71755,128.60001 719.40228,112.50597 719.40228,89.955596 719.40228,67.498796 701.62398,51.404756 680.47716,51.404756 L 658.11393,51.404756 Z M 675.70509,112.88025 675.70509,67.124516 678.41862,67.124516 C 691.51842,67.124516 700.40757,77.136506 700.40757,90.049166 700.314,102.96183 691.42485,112.88025 678.41862,112.88025 L 675.70509,112.88025 Z"/>
	<path d="M 748.47752,128.60001 762.32588,128.60001 794.7011,51.404756 774.86426,51.404756 755.4017,102.1197 735.93914,51.404756 716.1023,51.404756 748.47752,128.60001 Z"/>
	<path d="M 846.7858,51.404756 802.62076,51.404756 802.62076,128.60001 846.7858,128.60001 846.7858,113.16096 820.21192,113.16096 820.21192,97.628336 845.66296,97.628336 845.66296,82.189286 820.21192,82.189286 820.21192,66.843806 846.7858,66.843806 846.7858,51.404756 Z"/>
	<path d="M 879.48988,80.692166 879.67702,80.692166 910.36798,128.60001 927.95914,128.60001 927.95914,51.404756 910.36798,51.404756 910.36798,99.312596 910.18084,99.312596 879.48988,51.404756 861.89872,51.404756 861.89872,128.60001 879.48988,128.60001 879.48988,80.692166 Z"/>
	<path d="M 934.7691,66.843806 953.10882,66.843806 953.10882,128.60001 970.69998,128.60001 970.69998,66.843806 989.0397,66.843806 989.0397,51.404756 934.7691,51.404756 934.7691,66.843806 Z"/>
	<path d="M 1059.698,51.404756 1042.1069,51.404756 1042.1069,96.037646 C 1042.1069,108.95031 1038.1769,112.69311 1029.5685,112.69311 1020.9601,112.69311 1017.0301,108.95031 1017.0301,96.037646 L 1017.0301,51.404756 999.43897,51.404756 999.43897,101.184 C 999.43897,120.27228 1009.9188,130.00356 1029.5685,130.00356 1049.2182,130.00356 1059.698,120.27228 1059.698,101.184 L 1059.698,51.404756 Z"/>
	<path d="M 1075.0039,51.404756 1075.0039,128.60001 1092.5951,128.60001 1092.5951,98.096186 1116.1747,128.60001 1138.538,128.60001 1111.9641,96.692636 C 1121.4147,93.698396 1127.7774,85.932086 1127.7774,74.329406 1127.7774,59.171066 1116.9233,51.404756 1102.6071,51.404756 L 1075.0039,51.404756 Z M 1092.5951,85.651376 1092.5951,65.440256 1094.6536,65.440256 C 1101.2971,65.440256 1109.2506,65.908106 1109.2506,75.545816 1109.2506,85.183526 1101.2971,85.651376 1094.6536,85.651376 L 1092.5951,85.651376 Z"/>
	<path d="M 1191.2397,51.404756 1147.0746,51.404756 1147.0746,128.60001 1191.2397,128.60001 1191.2397,113.16096 1164.6658,113.16096 1164.6658,97.628336 1190.1168,97.628336 1190.1168,82.189286 1164.6658,82.189286 1164.6658,66.843806 1191.2397,66.843806 1191.2397,51.404756 Z"/>
	<path d="M 1234.7979,50.001206 C 1222.353,50.001206 1209.6275,59.171066 1209.6275,73.580846 1209.6275,81.627866 1215.0546,88.832756 1224.318,93.417686 1233.4879,98.002616 1241.722,100.52901 1241.722,106.14321 1241.722,113.3481 1234.4236,113.72238 1230.5872,113.72238 1221.9788,113.72238 1211.6861,105.02037 1211.6861,105.02037 L 1202.8905,119.80443 C 1202.8905,119.80443 1213.8382,130.00356 1231.8972,130.00356 1246.962,130.00356 1260.9975,123.54723 1260.9975,105.11394 1260.9975,95.008376 1251.5469,87.709916 1242.9384,84.060686 1234.1429,80.317886 1226.8444,77.230076 1226.8444,72.925856 1226.8444,68.715206 1230.0258,66.001676 1236.0143,66.001676 1243.9677,66.001676 1251.6405,71.335166 1251.6405,71.335166 L 1258.7518,57.299666 C 1258.7518,57.299666 1248.8334,50.001206 1234.7979,50.001206 Z"/>
	<path d="M 266.68536,151.40476 249.0942,151.40476 249.0942,228.60001 266.68536,228.60001 266.68536,151.40476 Z"/>
	<path d="M 300.56047,180.69217 300.74761,180.69217 331.43857,228.60001 349.02973,228.60001 349.02973,151.40476 331.43857,151.40476 331.43857,199.3126 331.25143,199.3126 300.56047,151.40476 282.96931,151.40476 282.96931,228.60001 300.56047,228.60001 300.56047,180.69217 Z"/>
	<path d="M 447.23116,228.60001 466.69372,228.60001 488.68267,151.40476 469.22011,151.40476 456.02674,204.36538 455.55889,204.36538 441.52339,151.40476 428.23645,151.40476 414.20095,204.36538 413.7331,204.36538 400.53973,151.40476 380.9836,151.40476 402.97255,228.60001 422.52868,228.60001 434.87992,185.2771 447.23116,228.60001 Z"/>
	<path d="M 491.51593,189.9556 C 491.51593,212.50597 507.60997,230.00356 530.44105,230.00356 552.61714,230.00356 569.2726,212.50597 569.2726,189.9556 569.2726,167.40523 551.86858,150.00121 530.44105,150.00121 509.20066,150.00121 491.51593,167.40523 491.51593,189.9556 Z M 510.51064,189.9556 C 510.51064,178.44649 516.8734,166.93738 530.44105,166.93738 544.10227,166.93738 550.27789,178.44649 550.27789,189.9556 550.27789,201.46471 544.47655,212.97382 530.44105,212.97382 516.03127,212.97382 510.51064,201.46471 510.51064,189.9556 Z"/>
	<path d="M 599.62569,180.69217 599.81283,180.69217 630.50379,228.60001 648.09495,228.60001 648.09495,151.40476 630.50379,151.40476 630.50379,199.3126 630.31665,199.3126 599.62569,151.40476 582.03453,151.40476 582.03453,228.60001 599.62569,228.60001 599.62569,180.69217 Z"/>
	<path d="M 664.33943,151.40476 664.33943,228.60001 686.70266,228.60001 C 707.94305,228.60001 725.62778,212.50597 725.62778,189.9556 725.62778,167.4988 707.84948,151.40476 686.70266,151.40476 L 664.33943,151.40476 Z M 681.93059,212.88025 681.93059,167.12452 684.64412,167.12452 C 697.74392,167.12452 706.63307,177.13651 706.63307,190.04917 706.5395,202.96183 697.65035,212.88025 684.64412,212.88025 L 681.93059,212.88025 Z"/>
	<path d="M 782.58544,151.40476 738.4204,151.40476 738.4204,228.60001 782.58544,228.60001 782.58544,213.16096 756.01156,213.16096 756.01156,197.62834 781.4626,197.62834 781.4626,182.18929 756.01156,182.18929 756.01156,166.84381 782.58544,166.84381 782.58544,151.40476 Z"/>
	<path d="M 797.69832,151.40476 797.69832,228.60001 815.28948,228.60001 815.28948,198.09619 838.86912,228.60001 861.23235,228.60001 834.65847,196.69264 C 844.10904,193.6984 850.4718,185.93209 850.4718,174.32941 850.4718,159.17107 839.61768,151.40476 825.30147,151.40476 L 797.69832,151.40476 Z M 815.28948,185.65138 815.28948,165.44026 817.34802,165.44026 C 823.99149,165.44026 831.94494,165.90811 831.94494,175.54582 831.94494,185.18353 823.99149,185.65138 817.34802,185.65138 L 815.28948,185.65138 Z"/>
	<path d="M 887.36016,151.40476 869.769,151.40476 869.769,228.60001 913.93404,228.60001 913.93404,213.16096 887.36016,213.16096 887.36016,151.40476 Z"/>
	<path d="M 968.25272,151.40476 951.97154,151.40476 920.81273,228.60001 939.71387,228.60001 945.42164,213.16096 974.80262,213.16096 980.51039,228.60001 999.41153,228.60001 968.25272,151.40476 Z M 968.81414,197.72191 951.41012,197.72191 960.01856,175.26511 960.2057,175.26511 968.81414,197.72191 Z"/>
	<path d="M 1024.9224,180.69217 1025.1095,180.69217 1055.8005,228.60001 1073.3916,228.60001 1073.3916,151.40476 1055.8005,151.40476 1055.8005,199.3126 1055.6133,199.3126 1024.9224,151.40476 1007.3312,151.40476 1007.3312,228.60001 1024.9224,228.60001 1024.9224,180.69217 Z"/>
	<path d="M 1089.6361,151.40476 1089.6361,228.60001 1111.9994,228.60001 C 1133.2397,228.60001 1150.9245,212.50597 1150.9245,189.9556 1150.9245,167.4988 1133.1462,151.40476 1111.9994,151.40476 L 1089.6361,151.40476 Z M 1107.2273,212.88025 1107.2273,167.12452 1109.9408,167.12452 C 1123.0406,167.12452 1131.9298,177.13651 1131.9298,190.04917 1131.8362,202.96183 1122.947,212.88025 1109.9408,212.88025 L 1107.2273,212.88025 Z"/>
	<path d="M 390.11463,331.05151 376.92079,331.05151 376.92079,388.95001 410.04575,388.95001 410.04575,377.37031 390.11463,377.37031 390.11463,331.05151 Z"/>
	<path d="M 454.65907,331.05151 421.53411,331.05151 421.53411,388.95001 454.65907,388.95001 454.65907,377.37031 434.72795,377.37031 434.72795,365.72043 453.81691,365.72043 453.81691,354.14073 434.72795,354.14073 434.72795,342.63121 454.65907,342.63121 454.65907,331.05151 Z"/>
	<path d="M 511.66794,388.95001 526.26538,388.95001 542.75768,331.05151 528.16024,331.05151 518.26486,370.77339 517.91396,370.77339 507.38696,331.05151 497.4214,331.05151 486.8944,370.77339 486.5435,370.77339 476.64812,331.05151 461.9805,331.05151 478.4728,388.95001 493.14042,388.95001 502.40418,356.45667 511.66794,388.95001 Z"/>
	<path d="M 564.11619,331.05151 550.92235,331.05151 550.92235,388.95001 564.11619,388.95001 564.11619,331.05151 Z"/>
	<path d="M 597.54348,329.99881 C 588.20954,329.99881 578.66506,336.87645 578.66506,347.68417 578.66506,353.71965 582.7355,359.12351 589.68332,362.56233 596.56096,366.00115 602.7368,367.89601 602.7368,372.10681 602.7368,377.51067 597.26276,377.79139 594.38538,377.79139 587.92882,377.79139 580.20902,371.26465 580.20902,371.26465 L 573.6121,382.35309 C 573.6121,382.35309 581.82316,390.00271 595.3679,390.00271 606.66688,390.00271 617.19388,385.16029 617.19388,371.33483 617.19388,363.75539 610.1057,358.28135 603.64914,355.54433 597.05222,352.73713 591.57818,350.42119 591.57818,347.19291 591.57818,344.03481 593.9643,341.99959 598.45582,341.99959 604.42112,341.99959 610.17588,345.99985 610.17588,345.99985 L 615.50956,335.47285 C 615.50956,335.47285 608.07048,329.99881 597.54348,329.99881 Z"/>
	<path d="M 681.1667,377.01941 C 667.90268,377.01941 662.07774,367.75565 662.07774,359.96567 662.07774,352.24587 667.90268,342.98211 681.1667,342.98211 687.90398,342.98211 692.53586,346.56129 692.53586,346.56129 L 698.15026,335.33249 C 698.15026,335.33249 691.6937,329.99881 679.13148,329.99881 662.70936,329.99881 647.76102,343.47337 647.76102,360.10603 647.76102,376.66851 662.77954,390.00271 679.13148,390.00271 691.6937,390.00271 698.15026,384.66903 698.15026,384.66903 L 692.53586,373.44023 C 692.53586,373.44023 687.90398,377.01941 681.1667,377.01941 Z"/>
	<path d="M 737.67222,331.05151 725.4609,331.05151 702.09096,388.95001 716.26732,388.95001 720.5483,377.37031 742.58482,377.37031 746.8658,388.95001 761.04216,388.95001 737.67222,331.05151 Z M 738.0933,365.79061 725.03982,365.79061 731.49638,348.94741 731.63674,348.94741 738.0933,365.79061 Z"/>
	<path d="M 768.23201,331.05151 768.23201,388.95001 781.42585,388.95001 781.42585,366.07133 799.11121,388.95001 815.88423,388.95001 795.95311,365.01863 C 803.04129,362.77287 807.81353,356.94793 807.81353,348.24561 807.81353,336.87645 799.67265,331.05151 788.93511,331.05151 L 768.23201,331.05151 Z M 781.42585,356.73739 781.42585,341.57851 782.96981,341.57851 C 787.95259,341.57851 793.91789,341.92941 793.91789,349.15795 793.91789,356.38649 787.95259,356.73739 782.96981,356.73739 L 781.42585,356.73739 Z"/>
	<path d="M 823.53682,331.05151 823.53682,388.95001 836.73066,388.95001 836.73066,366.07133 854.41602,388.95001 871.18904,388.95001 851.25792,365.01863 C 858.3461,362.77287 863.11834,356.94793 863.11834,348.24561 863.11834,336.87645 854.97746,331.05151 844.23992,331.05151 L 823.53682,331.05151 Z M 836.73066,356.73739 836.73066,341.57851 838.27462,341.57851 C 843.2574,341.57851 849.2227,341.92941 849.2227,349.15795 849.2227,356.38649 843.2574,356.73739 838.27462,356.73739 L 836.73066,356.73739 Z"/>
	<path d="M 876.24497,359.96567 C 876.24497,376.87905 888.31593,390.00271 905.43985,390.00271 922.07251,390.00271 934.56455,376.87905 934.56455,359.96567 934.56455,343.05229 921.51107,329.99881 905.43985,329.99881 889.50899,329.99881 876.24497,343.05229 876.24497,359.96567 Z M 890.49151,359.96567 C 890.49151,351.33353 895.26375,342.70139 905.43985,342.70139 915.68613,342.70139 920.31801,351.33353 920.31801,359.96567 920.31801,368.59781 915.96685,377.22995 905.43985,377.22995 894.63213,377.22995 890.49151,368.59781 890.49151,359.96567 Z"/>
	<path d="M 958.58002,331.05151 945.38618,331.05151 945.38618,388.95001 978.51114,388.95001 978.51114,377.37031 958.58002,377.37031 958.58002,331.05151 Z"/>
	<path d="M 1003.1934,331.05151 989.99953,331.05151 989.99953,388.95001 1023.1245,388.95001 1023.1245,377.37031 1003.1934,377.37031 1003.1934,331.05151 Z"/>
</svg>
